<?xml version="1.0" standalone="no"?>
<!DOCTYPE svg PUBLIC "-//W3C//DTD SVG 20010904//EN"
 "http://www.w3.org/TR/2001/REC-SVG-20010904/DTD/svg10.dtd">
<svg version="1.0" xmlns="http://www.w3.org/2000/svg"
 width="512.000000pt" height="512.000000pt" viewBox="0 0 512.000000 512.000000"
 preserveAspectRatio="xMidYMid meet">

<g transform="translate(0.000000,512.000000) scale(0.100000,-0.100000)"
fill="#000000" stroke="none">
<path d="M2410 4026 c0 -23 -357 -1290 -443 -1573 -21 -69 -30 -113 -23 -113
11 0 1256 176 1315 186 32 5 33 7 28 42 -8 51 -269 842 -277 837 -3 -2 -50
-129 -105 -284 -55 -154 -103 -277 -106 -273 -4 4 -91 270 -194 592 -170 534
-195 608 -195 586z m94 -429 c42 -131 76 -243 76 -248 0 -6 -20 4 -45 22 -25
18 -47 30 -48 28 -2 -2 -8 -24 -13 -49 l-9 -45 -25 39 c-14 22 -28 44 -32 50
-4 6 -41 -21 -87 -63 -45 -40 -81 -69 -81 -65 0 4 34 113 76 243 41 130 82
258 91 284 8 27 17 47 18 45 2 -2 38 -110 79 -241z m642 -754 c-1 -2 -25 43
-52 99 l-49 103 -7 -40 c-4 -22 -7 -56 -7 -75 -1 -44 -14 -30 -36 40 -22 68
-29 77 -51 59 -15 -12 -17 -12 -12 1 3 8 23 64 44 125 l38 110 68 -210 c37
-115 66 -210 64 -212z"/>
<path d="M2880 3898 c-46 -13 -98 -53 -122 -94 l-19 -33 -70 6 c-38 3 -69 2
-69 -2 0 -5 16 -60 35 -122 l36 -113 252 0 c144 0 268 5 290 11 47 13 77 44
77 82 0 55 -31 85 -99 96 -28 5 -36 12 -46 40 -35 105 -151 162 -265 129z"/>
<path d="M1750 3399 c-80 -13 -178 -65 -215 -115 -26 -37 -36 -42 -82 -48 -28
-4 -71 -17 -95 -29 -76 -39 -78 -112 -3 -151 38 -20 58 -21 356 -24 l317 -3
36 108 c20 59 36 114 36 122 0 9 -11 12 -40 9 -35 -3 -41 -1 -51 24 -16 40
-81 95 -126 107 -43 12 -56 12 -133 0z"/>
<path d="M4490 2903 c-63 -19 -118 -38 -122 -42 -4 -3 -47 -203 -97 -444 -63
-305 -96 -446 -110 -465 -39 -55 -142 -144 -195 -168 -65 -30 -149 -36 -172
-12 -21 21 -36 94 -29 139 6 34 11 38 65 58 183 67 321 233 324 389 1 81 -17
116 -72 139 -73 31 -221 -13 -321 -95 -137 -112 -241 -352 -244 -567 -1 -106
12 -150 56 -192 59 -55 130 -65 248 -35 93 25 172 75 266 170 70 70 83 80 83
60 1 -37 36 -105 66 -124 35 -23 118 -23 164 1 67 33 130 113 130 163 0 17 -6
18 -50 14 -86 -8 -87 -25 29 543 56 274 101 498 99 500 -2 1 -55 -13 -118 -32z
m-480 -493 c11 -7 15 -26 14 -68 -2 -110 -78 -229 -184 -286 -28 -15 -53 -26
-56 -24 -5 6 31 134 56 198 28 72 87 157 119 175 31 17 32 17 51 5z"/>
<path d="M1653 2483 c-74 -34 -167 -50 -333 -58 -233 -10 -372 -41 -509 -110
-187 -94 -301 -261 -301 -442 0 -69 17 -116 49 -133 29 -15 134 -13 125 2 -16
26 -22 106 -13 176 18 146 89 248 203 291 58 21 126 36 126 28 0 -3 -52 -257
-115 -564 -63 -307 -115 -565 -115 -574 0 -15 10 -15 113 3 61 11 115 23 119
27 3 3 56 249 118 546 61 297 113 547 116 556 4 14 26 17 142 21 153 5 209 22
269 80 35 34 66 112 61 151 l-3 24 -52 -24z"/>
<path d="M3364 2410 c-56 -22 -81 -101 -48 -149 14 -20 23 -22 55 -18 l39 5 0
-36 c0 -45 -42 -217 -70 -291 -67 -171 -150 -271 -228 -271 -59 0 -59 10 14
366 36 179 64 327 62 330 -4 4 -229 -34 -235 -40 -2 -1 -30 -135 -63 -297 -66
-321 -88 -385 -149 -426 -60 -41 -111 -22 -111 40 0 18 29 170 64 340 57 275
61 307 46 307 -16 0 -153 -23 -207 -35 -16 -4 -23 -13 -23 -29 0 -33 -10 -38
-30 -13 -16 19 -28 22 -83 21 -161 -2 -321 -141 -406 -356 -44 -109 -63 -200
-64 -304 -1 -80 3 -98 27 -147 22 -45 35 -60 72 -77 106 -52 243 4 346 139
l26 34 20 -46 c24 -55 51 -71 118 -71 76 0 168 49 238 126 54 59 55 60 62 34
9 -36 56 -73 103 -81 50 -8 142 10 201 40 177 90 322 354 360 658 23 183 0
258 -79 256 -20 0 -46 -4 -57 -9z m-899 -310 c17 -19 17 -27 -24 -232 -27
-134 -51 -232 -67 -266 -46 -96 -135 -135 -177 -79 -45 58 -15 270 59 427 65
138 159 205 209 150z"/>
<path d="M1795 2096 c-27 -13 -71 -44 -97 -70 -50 -47 -53 -46 -39 17 8 34 7
37 -13 37 -26 -1 -216 -36 -220 -41 -7 -10 -177 -861 -172 -866 5 -6 224 32
232 40 4 3 35 149 70 324 35 175 67 326 70 335 7 25 77 77 111 84 27 5 30 3
42 -35 6 -22 20 -45 30 -50 48 -26 143 42 156 113 10 49 -11 103 -45 121 -40
21 -67 19 -125 -9z"/>
</g>
</svg>
