<?xml version="1.0" standalone="no"?>
<!DOCTYPE svg PUBLIC "-//W3C//DTD SVG 20010904//EN"
 "http://www.w3.org/TR/2001/REC-SVG-20010904/DTD/svg10.dtd">
<svg version="1.0" xmlns="http://www.w3.org/2000/svg"
 width="512.000000pt" height="512.000000pt" viewBox="0 0 512.000000 512.000000"
 preserveAspectRatio="xMidYMid meet">
<metadata>
Created by potrace 1.11, written by Peter Selinger 2001-2013
</metadata>
<g transform="translate(0.000000,512.000000) scale(0.100000,-0.100000)"
fill="#000000" stroke="none">
<path d="M2555 4290 c-1337 -456 -2450 -837 -2473 -846 -104 -39 -107 -162 -6
-207 21 -9 543 -210 1158 -447 616 -236 1122 -433 1126 -437 4 -4 229 -523
501 -1153 272 -630 504 -1155 516 -1167 25 -26 64 -38 98 -29 67 17 24 -107
860 2520 432 1358 785 2477 785 2488 0 52 -59 109 -112 107 -13 0 -1116 -373
-2453 -829z m951 -629 l-1089 -1089 -51 20 c-28 11 -467 180 -976 375 -509
195 -930 358 -937 362 -7 3 90 41 215 84 2735 933 3918 1336 3922 1337 3 0
-485 -490 -1084 -1089z m594 -1147 c-364 -1144 -663 -2080 -664 -2081 -3 -4
-856 1971 -856 1983 0 10 2172 2185 2178 2180 2 -2 -294 -939 -658 -2082z"/>
<path d="M860 2223 c-32 -6 -823 -792 -846 -841 -36 -75 17 -152 104 -152 l46
0 404 403 c222 221 410 414 418 429 45 86 -27 178 -126 161z"/>
<path d="M1625 1771 c-11 -5 -379 -369 -817 -808 -541 -541 -799 -807 -803
-825 -20 -79 54 -153 132 -134 19 5 286 265 833 812 l805 804 0 50 c0 40 -5
55 -26 76 -28 28 -90 40 -124 25z"/>
<path d="M2055 981 c-16 -10 -209 -198 -427 -418 l-398 -399 0 -46 c0 -87 77
-140 152 -104 19 9 215 198 436 419 415 416 410 410 403 477 -8 75 -98 114
-166 71z"/>
</g>
</svg>
